<svg width="400" height="400" viewBox="0 0 400 400" fill="none" xmlns="http://www.w3.org/2000/svg">
  <!-- Background -->
  <rect width="400" height="400" fill="url(#supportBg)"/>
  
  <!-- Support person -->
  <circle cx="200" cy="160" r="40" fill="#fbbf24"/>
  <rect x="180" y="200" width="40" height="60" rx="20" fill="#3b82f6"/>
  <rect x="170" y="220" width="20" height="40" fill="#1e40af"/>
  <rect x="210" y="220" width="20" height="40" fill="#1e40af"/>
  
  <!-- Headset -->
  <path d="M170 150 Q200 130 230 150" stroke="#1f2937" stroke-width="4" fill="none"/>
  <circle cx="170" cy="150" r="8" fill="#1f2937"/>
  <circle cx="230" cy="150" r="8" fill="#1f2937"/>
  
  <!-- Computer/Help desk -->
  <rect x="120" y="280" width="160" height="80" rx="8" fill="#6b7280"/>
  <rect x="130" y="290" width="140" height="60" rx="4" fill="#111827"/>
  
  <!-- Help icons floating around -->
  <circle cx="80" cy="100" r="15" fill="#10b981" opacity="0.8"/>
  <text x="80" y="106" font-family="Arial" font-size="18" fill="white" text-anchor="middle">?</text>
  
  <circle cx="320" cy="120" r="15" fill="#f59e0b" opacity="0.8"/>
  <text x="320" y="126" font-family="Arial" font-size="18" fill="white" text-anchor="middle">!</text>
  
  <circle cx="90" cy="300" r="15" fill="#ef4444" opacity="0.8"/>
  <text x="90" y="306" font-family="Arial" font-size="18" fill="white" text-anchor="middle">📞</text>
  
  <circle cx="310" cy="280" r="15" fill="#8b5cf6" opacity="0.8"/>
  <text x="310" y="286" font-family="Arial" font-size="18" fill="white" text-anchor="middle">💬</text>
  
  <!-- Connection lines -->
  <path d="M80 115 Q150 140 170 180" stroke="#10b981" stroke-width="2" opacity="0.6" fill="none"/>
  <path d="M320 135 Q250 160 230 180" stroke="#f59e0b" stroke-width="2" opacity="0.6" fill="none"/>
  
  <defs>
    <linearGradient id="supportBg" x1="0%" y1="0%" x2="100%" y2="100%">
      <stop offset="0%" style="stop-color:#ddd6fe"/>
      <stop offset="100%" style="stop-color:#ede9fe"/>
    </linearGradient>
  </defs>
</svg>
